<svg width="186" height="179" viewBox="0 0 186 179" fill="none" xmlns="http://www.w3.org/2000/svg">
<path d="M159.326 93.7836C162.243 90.8427 162.224 86.094 159.283 83.177L111.359 35.6426C108.418 32.7256 103.669 32.745 100.752 35.6859C97.8353 38.6267 97.8547 43.3754 100.796 46.2924L143.395 88.5453L101.142 131.145C98.225 134.085 98.2444 138.834 101.185 141.751C104.126 144.668 108.875 144.649 111.792 141.708L159.326 93.7836ZM32.0306 96.4999L154.032 96.0019L153.971 81.002L31.9694 81.5001L32.0306 96.4999Z" fill="black"/>
<path d="M178.5 89.5C178.5 134.519 140.494 171.5 93 171.5C45.5059 171.5 7.5 134.519 7.5 89.5C7.5 44.4812 45.5059 7.5 93 7.5C140.494 7.5 178.5 44.4812 178.5 89.5Z" stroke="black" stroke-width="15"/>
</svg>
