<svg width="110" height="74" viewBox="0 0 110 74" fill="none" xmlns="http://www.w3.org/2000/svg">
<path d="M5 32C2.23858 32 0 34.2386 0 37C0 39.7614 2.23858 42 5 42V32ZM108.536 40.5355C110.488 38.5829 110.488 35.4171 108.536 33.4645L76.7157 1.64466C74.7631 -0.307961 71.5973 -0.307961 69.6447 1.64466C67.692 3.59728 67.692 6.76311 69.6447 8.71573L97.9289 37L69.6447 65.2843C67.692 67.2369 67.692 70.4027 69.6447 72.3553C71.5973 74.308 74.7631 74.308 76.7157 72.3553L108.536 40.5355ZM5 42H105V32H5V42Z" fill="white"/>
</svg>
